<?xml version="1.0"?>
<svg xmlns="http://www.w3.org/2000/svg" xmlns:xlink="http://www.w3.org/1999/xlink" xmlns:svgjs="http://svgjs.com/svgjs" version="1.1" width="512" height="512" x="0" y="0" viewBox="0 0 512 512" style="enable-background:new 0 0 512 512" xml:space="preserve"><g transform="matrix(1,0,0,1,0,0)"><g xmlns="http://www.w3.org/2000/svg"><path d="m189.267 225.182v1.393c.529 13.268 19.476 13.258 20 0v-.619c45.875-6.446 41.874-59.276 4.746-71.803-1.667-.589-3.246-1.153-4.746-1.693v-31.947c3.907 1.201 6.628 3.187 7.96 5.085 3.173 4.52 9.408 5.61 13.931 2.44 4.521-3.173 5.613-9.41 2.44-13.931-4.7-6.696-13.221-12.28-24.331-14.098v-2.085c-.529-13.268-19.476-13.258-20 0v2.842c-1.507.335-3.036.73-4.59 1.198-27.536 8.887-32.136 48.268-3.797 60.885 1.839.868 4.724 2.067 8.387 3.496v38.277c-5.104-1.531-9.793-4.085-12.84-7.867-3.464-4.3-9.759-4.979-14.061-1.514-4.301 3.464-4.979 9.76-1.514 14.061 7.263 9.014 17.978 13.826 28.415 15.88zm33.423-31.673c-.79 6.216-5.616 10.522-13.424 12.173v-31.912c10.357 4.467 14.257 13.182 13.424 19.739zm-41.048-60.493c.365-4.925 3.556-9.611 7.625-11.448v23.118c-6.766-3.256-7.888-8.135-7.625-11.67z" fill="#9da0ad" data-original="#000000" style=""/><path d="m237.037 383.213h-72.633c-13.268.529-13.258 19.476 0 20h72.633c13.268-.529 13.258-19.476 0-20z" fill="#9da0ad" data-original="#000000" style=""/><path d="m477.682 286.926c0-63.109-48.744-115.041-110.56-120.142v-144.386c0-3.879-2.243-7.407-5.754-9.054l-26.44-12.398c-2.691-1.262-5.802-1.262-8.491 0l-38.977 18.276-38.975-18.276c-2.689-1.262-5.8-1.262-8.491 0l-38.973 18.275-38.966-18.275c-2.689-1.262-5.801-1.262-8.492 0l-38.973 18.276-38.975-18.276c-2.689-1.262-5.8-1.262-8.491 0l-27.052 12.686c-3.511 1.646-5.754 5.175-5.754 9.054v466.916c0 3.879 2.243 7.407 5.755 9.054l26.439 12.398c2.691 1.262 5.802 1.262 8.491 0l38.977-18.275 38.975 18.275c2.689 1.262 5.8 1.262 8.491 0l38.973-18.275 38.968 18.275c2.69 1.262 5.802 1.262 8.492 0l38.972-18.275 38.974 18.275c2.691 1.262 5.801 1.262 8.492 0l27.052-12.686c3.511-1.646 5.754-5.175 5.754-9.054v-82.247c61.814-5.1 110.559-57.032 110.559-120.141zm-147.612 204.029-38.975-18.275c-2.689-1.262-5.8-1.262-8.491 0l-38.972 18.275-38.968-18.275c-2.691-1.262-5.801-1.262-8.492 0l-38.972 18.275-38.975-18.275c-2.689-1.262-5.801-1.262-8.49 0l-38.977 18.275-16.44-7.709v-454.205l17.052-7.996 38.975 18.275c2.689 1.262 5.8 1.262 8.491 0l38.973-18.275 38.967 18.275c2.689 1.262 5.801 1.262 8.492 0l38.973-18.275 38.974 18.275c2.691 1.262 5.802 1.262 8.491 0l38.977-18.275 16.44 7.709v138.03c-62.808 5.079-112.174 59.003-110.522 123.063h-124.048c-13.268.529-13.258 19.476 0 20h126.205c1.801 9.317 4.669 18.258 8.488 26.683h-134.693c-13.268.529-13.258 19.476 0 20h146.185c20.047 28.253 51.944 47.531 88.384 50.537v75.892zm27.052-103.47c-55.449 0-100.56-45.11-100.56-100.56 5.523-133.406 195.616-133.367 201.119.001.001 55.449-45.11 100.559-100.559 100.559z" fill="#9da0ad" data-original="#000000" style=""/><path d="m382.539 225.829c-5.091-2.141-10.953.259-13.09 5.352l-41.746 99.479c-2.138 5.092.259 10.953 5.352 13.09 4.966 2.123 10.953-.207 13.09-5.352l41.746-99.479c2.137-5.092-.259-10.953-5.352-13.09z" fill="#9da0ad" data-original="#000000" style=""/><path d="m357.378 251.85c0-17.334-12.761-31.436-28.446-31.436-37.731 1.706-37.718 61.173 0 62.872 15.685 0 28.446-14.102 28.446-31.436zm-36.892 0c0-6.198 3.867-11.436 8.445-11.436s8.446 5.237 8.446 11.436-3.868 11.437-8.446 11.437-8.445-5.238-8.445-11.437z" fill="#9da0ad" data-original="#000000" style=""/><path d="m385.312 288.429c-15.686 0-28.446 14.103-28.446 31.437 1.571 41.707 55.325 41.697 56.892 0 0-17.335-12.761-31.437-28.446-31.437zm0 42.873c-4.578 0-8.446-5.237-8.446-11.437s3.868-11.437 8.446-11.437 8.445 5.237 8.445 11.437-3.866 11.437-8.445 11.437z" fill="#9da0ad" data-original="#000000" style=""/></g></g></svg>
