<svg id="SvgjsSvg1001" width="288" height="288" xmlns="http://www.w3.org/2000/svg" version="1.1" xmlns:xlink="http://www.w3.org/1999/xlink" xmlns:svgjs="http://svgjs.com/svgjs"><defs id="SvgjsDefs1002"></defs><g id="SvgjsG1008" transform="matrix(1,0,0,1,0,0)"><svg xmlns="http://www.w3.org/2000/svg" enable-background="new 0 0 469.333 469.333" viewBox="0 0 469.333 469.333" width="288" height="288"><path d="M234.646,63.979c-23.542,0-42.688,19.146-42.688,42.688s19.146,42.687,42.688,42.687
				c23.542,0,42.687-19.146,42.687-42.687S258.187,63.979,234.646,63.979z M234.646,128.021c-11.771,0-21.354-9.583-21.354-21.354
				s9.583-21.354,21.354-21.354c11.771,0,21.354,9.583,21.354,21.354S246.417,128.021,234.646,128.021z" fill="#9da0ad" class="color000 svgShape"></path><path d="M458.667,192c5.896,0,10.667-4.742,10.667-10.637v-42.662c0-3.76-1.979-7.249-5.219-9.166L255.458,5.621
				c-0.094-0.063-0.188-0.115-0.281-0.167c-12.969-7.187-27.594-7.405-41.313,0.146L5.219,129.535
				C1.979,131.451,0,134.941,0,138.701v42.662C0,187.258,4.771,192,10.667,192h32v192.009C19.135,384.009,0,403.142,0,426.671
				v31.997c0,5.895,4.771,10.666,10.667,10.666h448c5.896,0,10.667-4.77,10.667-10.666v-31.997
				c0-23.529-19.135-42.662-42.667-42.662V192H458.667z M448,426.667V448H21.333v-21.333c0-11.76,9.573-21.333,21.333-21.333h10.667
				H416h10.667C438.427,405.333,448,414.906,448,426.667z M64,384V192h42.667v192H64z M128,384V192h64v192H128z M213.333,384V192
				H256v192H213.333z M277.333,384V192h64v192H277.333z M362.667,384V192h42.667v192H362.667z M21.333,170.667V144.74
				L224.448,24.073c6.646-3.656,13.708-3.646,20.271-0.073L448,144.74v25.927H21.333z" fill="#9da0ad" class="color000 svgShape"></path></svg></g></svg>