<svg id="SvgjsSvg1001" width="288" height="288" xmlns="http://www.w3.org/2000/svg" version="1.1" xmlns:xlink="http://www.w3.org/1999/xlink" xmlns:svgjs="http://svgjs.com/svgjs"><defs id="SvgjsDefs1002"></defs><g id="SvgjsG1008" transform="matrix(1,0,0,1,0,0)"><svg xmlns="http://www.w3.org/2000/svg" width="288" height="288" enable-background="new 0 0 300 300" viewBox="0 0 300 300"><path d="M93.516 84.484c.781.781 1.805 1.172 2.828 1.172s2.047-.391 2.828-1.172l2.828-2.828 2.828 2.828c.781.781 1.805 1.172 2.828 1.172s2.047-.391 2.828-1.172c1.562-1.562 1.562-4.094 0-5.656l-2.828-2.828 2.828-2.828c1.562-1.562 1.562-4.094 0-5.656s-4.094-1.562-5.656 0l-2.828 2.828-2.828-2.828c-1.562-1.562-4.094-1.562-5.656 0s-1.562 4.094 0 5.656l2.828 2.828-2.828 2.828c-1.563 1.563-1.563 4.094 0 5.656zM204 90.529c2.501 0 4.53-2.028 4.53-4.529 0-2.502-2.028-4.53-4.53-4.53s-4.53 2.028-4.53 4.53c0 2.501 2.029 4.529 4.53 4.529zM60 82.529c2.501 0 4.53-2.028 4.53-4.529 0-2.502-2.028-4.53-4.53-4.53s-4.53 2.028-4.53 4.53c0 2.501 2.029 4.529 4.53 4.529zM226 64h4v4c0 2.209 1.789 4 4 4s4-1.791 4-4v-4h4c2.211 0 4-1.791 4-4s-1.789-4-4-4h-4v-4c0-2.209-1.789-4-4-4s-4 1.791-4 4v4h-4c-2.211 0-4 1.791-4 4s1.789 4 4 4zM264.562 124.928c-1.25-1.041-3-1.223-4.445-.457l-34.776 18.547-7.478-28.049c-.398-1.506-1.641-2.643-3.176-2.91-1.547-.262-3.09.383-3.977 1.664l-17.87 25.81-39.541-57.79c-1.492-2.18-5.109-2.18-6.602 0l-39.542 57.792-17.869-25.811c-.887-1.281-2.426-1.928-3.977-1.664-1.535.268-2.777 1.404-3.176 2.91l-7.48 28.048-34.774-18.546c-1.438-.766-3.191-.584-4.445.457-1.25 1.043-1.742 2.74-1.246 4.291l31.812 99.405v19.375c0 2.209 1.789 4 4 4h160c2.211 0 4-1.791 4-4v-19.375l31.809-99.406c.496-1.551.003-3.248-1.247-4.291zm-52.199.463l5.732 21.492-14.818 7.903-5.599-8.183zm-124.726 0l14.684 21.213-5.598 8.182-14.82-7.904zm-13.637 106.609h9.404c-.874 1.826-1.404 3.845-1.404 6s.53 4.174 1.404 6h-9.404zm136 6c0 3.309-2.691 6-6 6s-6-2.691-6-6 2.691-6 6-6 6 2.691 6 6zm-18.596 6h-10.809c.874-1.826 1.404-3.845 1.404-6s-.53-4.174-1.404-6h10.809c-.874 1.826-1.404 3.845-1.404 6s.53 4.174 1.404 6zm-17.404-6c0 3.309-2.691 6-6 6s-6-2.691-6-6 2.691-6 6-6 6 2.691 6 6zm-18.596 6h-10.809c.874-1.826 1.404-3.845 1.404-6s-.53-4.174-1.404-6h10.809c-.874 1.826-1.404 3.845-1.404 6s.53 4.174 1.404 6zm-17.404-6c0 3.309-2.691 6-6 6s-6-2.691-6-6 2.691-6 6-6 6 2.691 6 6zm-18.596 6h-10.809c.874-1.826 1.404-3.845 1.404-6s-.53-4.174-1.404-6h10.809c-.874 1.826-1.404 3.845-1.404 6s.53 4.174 1.404 6zm-17.404-6c0 3.309-2.691 6-6 6s-6-2.691-6-6 2.691-6 6-6 6 2.691 6 6zm114.596 6c.874-1.826 1.404-3.845 1.404-6s-.53-4.174-1.404-6h9.404v12zm10.485-20h-154.162l-28.106-87.832 51.305 27.361c1.801.959 4.031.41 5.184-1.271l48.698-71.174 48.699 71.174c1.148 1.682 3.375 2.23 5.184 1.271l51.305-27.361z" fill="#9da0ad" class="color000 svgShape"></path><path d="m153.434 118.555c-1.445-2.414-5.422-2.414-6.867 0l-28 46.857c-.746 1.248-.754 2.799-.027 4.057l28 48.381c.715 1.234 2.035 1.996 3.461 1.996s2.746-.762 3.461-1.996l28-48.381c.727-1.258.719-2.809-.027-4.057zm2.646 53.445-5.717 24.614-4.746-24.614zm-10.634-8 4.916-24.438 5.922 24.438zm-8.162 0h-8.553l12.895-21.579zm.187 8 4.111 21.313-12.336-21.313zm26.819 0h6.464l-10.798 18.658zm.223-8-4.608-19.018 11.364 19.018z" fill="#9da0ad" class="color000 svgShape"></path></svg></g></svg>