<svg id="SvgjsSvg1001" width="288" height="288" xmlns="http://www.w3.org/2000/svg" version="1.1" xmlns:xlink="http://www.w3.org/1999/xlink" xmlns:svgjs="http://svgjs.com/svgjs"><defs id="SvgjsDefs1002"></defs><g id="SvgjsG1008" transform="matrix(1,0,0,1,0,0)"><svg xmlns="http://www.w3.org/2000/svg" enable-background="new 0 0 512 512" viewBox="0 0 512 512" width="288" height="288"><path d="M188.649,255.987H128v21.333h256v-21.333h-60.347c18.498-13.029,33.193-31.394,41.679-53.333H422.4l35.189,39.136
				c2.025,2.249,4.91,3.533,7.936,3.531h35.808v-21.333h-31.061l-35.221-39.136c-2.025-2.249-4.91-3.533-7.936-3.531H352
				c-5.891,0-10.667-4.776-10.667-10.667c0-17.673,14.327-32,32-32H384c5.891,0,10.667,4.776,10.667,10.667
				c0,5.891,4.776,10.667,10.667,10.667h64v-21.333h-55.157c-4.537-12.776-16.619-21.317-30.176-21.333h-10.667
				c-2.633,0.003-5.218,0.205-7.749,0.576c-4.556-11.816-10.995-22.802-19.039-32.554l21.86-11.83l41.269,30.4l12.651-17.216
				l-46.731-34.411c-3.325-2.445-7.762-2.752-11.392-0.789L278.059,98.12c-2.186,1.187-4.634,1.809-7.122,1.81
				C262.69,99.932,256.002,93.248,256,85c-0.046-5.089,2.524-9.846,6.805-12.597l106.347-50.496l129.675,31.147l4.971-20.736
				l-133.333-32c-2.368-0.584-4.865-0.324-7.061,0.736l-90.254,42.848c-5.598-0.821-11.249-1.242-16.913-1.248
				c-64.801-0.065-117.386,52.414-117.451,117.215C138.745,199.598,158.458,234.73,188.649,255.987z M162.016,140.884
				c8.153-40.153,40.271-69.317,78.423-75.63c-3.8,5.828-5.922,12.723-5.897,19.925c0.007,1.93,0.167,3.822,0.464,5.669
				c-12.937,7.329-21.673,21.21-21.673,37.14c0,23.564,19.103,42.667,42.667,42.667c11.782,0,21.333,9.551,21.333,21.333
				S267.782,213.32,256,213.32s-21.333-9.551-21.333-21.333h-21.333c0,19.881,13.598,36.586,32,41.322v12.011h21.333V233.31
				c18.402-4.737,32-21.441,32-41.322c0-23.564-19.103-42.667-42.667-42.667c-11.782,0-21.333-9.551-21.333-21.333
				c0-7.552,3.935-14.171,9.855-17.963c6.636,6.984,16.017,11.332,26.412,11.296c2.154-0.003,4.295-0.207,6.4-0.588v17.921h21.333
				v-27.401l28.687-15.525c7.778,8.643,13.922,18.626,18.143,29.458c-15.277,9.381-25.474,26.23-25.497,45.467
				c0,14.444,9.572,26.648,22.716,30.627c-15.671,33.139-49.268,54.83-86.716,54.706c-6.384-0.006-12.751-0.65-19.007-1.92
				C185.034,243.517,151.466,192.843,162.016,140.884z" fill="#9da0ad" class="color000 svgShape"></path><path d="M490.667,266.654v128c0,5.891-4.776,10.667-10.667,10.667H32c-5.891,0-10.667-4.776-10.667-10.667V95.987
				c0-5.891,4.776-10.667,10.667-10.667h106.667V63.987H32c-17.673,0-32,14.327-32,32v298.667c0,17.673,14.327,32,32,32h142.735
				l-32,64h-25.402v21.333h277.333v-21.333h-25.409l-32-64H480c17.673,0,32-14.327,32-32v-128H490.667z M345.406,490.654h-178.82
				l32-64h114.821L345.406,490.654z" fill="#9da0ad" class="color000 svgShape"></path><rect width="21.333" height="21.333" x="85.333" y="255.987" fill="#9da0ad" class="color000 svgShape"></rect><path d="M42.667,330.654v42.667c0,5.891,4.776,10.667,10.667,10.667H96v-21.333H64v-32H42.667z" fill="#9da0ad" class="color000 svgShape"></path><rect width="21.333" height="21.333" x="117.333" y="362.654" fill="#9da0ad" class="color000 svgShape"></rect><path d="M448,362.654h-32v21.333h42.667c5.891,0,10.667-4.776,10.667-10.667v-42.667H448V362.654z" fill="#9da0ad" class="color000 svgShape"></path><rect width="21.333" height="21.333" x="373.333" y="362.654" fill="#9da0ad" class="color000 svgShape"></rect><path d="M117.333,106.654H74.667c-17.673,0-32,14.327-32,32V309.32H64V138.654c0-5.891,4.776-10.667,10.667-10.667h42.667
				V106.654z" fill="#9da0ad" class="color000 svgShape"></path><rect width="192" height="21.333" x="160" y="362.654" fill="#9da0ad" class="color000 svgShape"></rect></svg></g></svg>