<svg id="Layer_1" enable-background="new 0 0 512 512" height="512" viewBox="0 0 512 512" width="512" xmlns="http://www.w3.org/2000/svg"><g><path d="m497 176.733h-49.851c-7.677-98.738-90.475-176.733-191.149-176.733s-183.472 77.995-191.149 176.733h-49.851c-8.284 0-15 6.716-15 15v160.667c0 8.284 6.716 15 15 15h64.267c8.284 0 15-6.716 15-15v-160.667c0-89.18 72.553-161.733 161.733-161.733s161.733 72.553 161.733 161.733v160.667c0 53.743-43.724 97.467-97.467 97.467h-19.594c-6.281-18.655-23.927-32.133-44.672-32.133-25.989 0-47.134 21.144-47.134 47.133s21.145 47.133 47.134 47.133c20.745 0 38.391-13.478 44.672-32.133h19.594c65.21 0 119.132-49.225 126.58-112.467h50.154c8.284 0 15-6.716 15-15v-160.667c0-8.284-6.716-15-15-15zm-432.733 160.667h-34.267v-130.667h34.267zm191.733 144.6c-9.447 0-17.134-7.686-17.134-17.133s7.687-17.133 17.134-17.133 17.134 7.686 17.134 17.133-7.687 17.133-17.134 17.133zm226-144.6h-34.267v-130.667h34.267z"/><path d="m366.175 177.875c-5.603-2.322-12.055-1.04-16.346 3.25-.001 0-46.833 46.817-69.037 69.005-9.973 10.027-15.692 23.879-15.692 38.003 0 8.284 6.716 15 15 15h65.334v33.2c0 8.284 6.716 15 15 15s15-6.716 15-15v-33.2h1.066c8.284 0 15-6.716 15-15s-6.716-15-15-15h-1.066v-81.4c0-6.066-3.655-11.535-9.259-13.858zm-20.741 95.258h-45.028c.51-.632 1.052-1.238 1.625-1.815 11.235-11.227 28.806-28.789 43.403-43.381z"/><path d="m238.866 336.333c0-8.284-6.716-15-15-15h-60.027c.509-.632 1.051-1.239 1.624-1.815 22.173-22.157 69.008-68.977 69.008-68.977 2.814-2.813 4.396-6.629 4.396-10.608v-8.033c0-30.419-24.747-55.167-55.166-55.167-30.721 0-55.167 24.892-55.167 55.15v.016c0 8.284 6.716 14.992 15 14.992s15-6.724 15-15.008c0-13.75 11.071-25.15 25.167-25.15 13.877 0 25.166 11.29 25.166 25.167v1.818c-12.163 12.159-46.564 46.547-64.642 64.613-9.973 10.027-15.691 23.879-15.691 38.002 0 8.284 6.716 15 15 15h80.333c8.283 0 14.999-6.715 14.999-15z"/></g></svg>