<svg id="SvgjsSvg1001" width="288" height="288" xmlns="http://www.w3.org/2000/svg" version="1.1" xmlns:xlink="http://www.w3.org/1999/xlink" xmlns:svgjs="http://svgjs.com/svgjs"><defs id="SvgjsDefs1002"></defs><g id="SvgjsG1008" transform="matrix(1,0,0,1,0,0)"><svg xmlns="http://www.w3.org/2000/svg" width="288" height="288" viewBox="0 -1 143.751 143"><path d="M 108.011719 15.257812 L 108.011719 12.324219 L 123.078125 12.324219 C 123.933594 17.996094 129.230469 21.902344 134.910156 21.050781 C 140.582031 20.195312 144.492188 14.902344 143.632812 9.21875 C 142.78125 3.542969 137.476562 -0.363281 131.804688 0.492188 C 127.296875 1.175781 123.757812 4.714844 123.078125 9.21875 L 108.011719 9.21875 L 108.011719 7.09375 C 108.003906 4.421875 105.84375 2.265625 103.171875 2.253906 L 40.597656 2.253906 C 37.917969 2.253906 35.75 4.417969 35.738281 7.09375 L 35.738281 9.25 L 20.671875 9.25 C 19.816406 3.574219 14.523438 -0.335938 8.84375 0.523438 C 3.167969 1.378906 -0.738281 6.675781 0.117188 12.351562 C 0.96875 18.035156 6.273438 21.941406 11.949219 21.085938 C 16.457031 20.398438 19.988281 16.863281 20.671875 12.351562 L 35.765625 12.351562 L 35.765625 15.285156 C 35.78125 17.957031 37.941406 20.117188 40.613281 20.128906 L 45.75 20.128906 L 44.566406 32.402344 L 36.8125 32.402344 C 33.914062 32.390625 31.554688 34.730469 31.535156 37.625 L 31.535156 40.730469 L 20.671875 40.730469 C 19.816406 35.058594 14.523438 31.152344 8.84375 32.007812 C 3.167969 32.863281 -0.738281 38.160156 0.117188 43.832031 C 0.96875 49.511719 6.273438 53.417969 11.949219 52.566406 C 16.457031 51.882812 19.988281 48.347656 20.671875 43.832031 L 31.535156 43.832031 L 31.535156 46.9375 C 31.597656 49.792969 33.921875 52.082031 36.78125 52.089844 L 42.644531 52.089844 L 34.253906 139.324219 C 34.164062 140.171875 34.796875 140.925781 35.648438 141.011719 L 35.804688 141.011719 C 36.601562 141.011719 37.269531 140.40625 37.355469 139.609375 L 39.046875 121.90625 L 71.878906 105.527344 L 104.703125 121.984375 L 106.398438 139.628906 C 106.480469 140.425781 107.152344 141.03125 107.949219 141.023438 L 108.105469 141.023438 C 108.957031 140.945312 109.582031 140.183594 109.5 139.332031 L 101.105469 52.089844 L 106.972656 52.089844 C 109.859375 52.082031 112.210938 49.738281 112.214844 46.847656 L 112.214844 43.746094 L 123.078125 43.746094 C 123.933594 49.421875 129.230469 53.328125 134.910156 52.46875 C 140.582031 51.613281 144.492188 46.320312 143.632812 40.640625 C 142.78125 34.964844 137.476562 31.058594 131.804688 31.910156 C 127.296875 32.589844 123.757812 36.132812 123.078125 40.640625 L 112.214844 40.640625 L 112.214844 37.539062 C 112.214844 34.632812 109.859375 32.277344 106.957031 32.277344 L 99.199219 32.277344 L 98.019531 20 L 103.152344 20 C 105.800781 20 107.953125 17.894531 108.011719 15.257812 Z M 133.363281 3.496094 C 137.390625 3.523438 140.628906 6.816406 140.601562 10.839844 C 140.570312 14.867188 137.285156 18.109375 133.253906 18.074219 C 129.839844 18.050781 126.902344 15.660156 126.183594 12.324219 L 133.289062 12.324219 C 134.140625 12.324219 134.835938 11.628906 134.835938 10.773438 C 134.835938 9.910156 134.140625 9.21875 133.289062 9.21875 L 126.183594 9.21875 C 126.910156 5.84375 129.914062 3.449219 133.363281 3.476562 Z M 10.390625 12.339844 L 17.566406 12.339844 C 16.710938 16.269531 12.828125 18.769531 8.894531 17.914062 C 4.964844 17.058594 2.460938 13.175781 3.320312 9.234375 C 4.175781 5.300781 8.066406 2.804688 11.996094 3.664062 C 14.785156 4.269531 16.964844 6.449219 17.566406 9.234375 L 10.390625 9.234375 C 9.53125 9.234375 8.839844 9.929688 8.839844 10.785156 C 8.839844 11.648438 9.53125 12.339844 10.390625 12.339844 Z M 10.015625 43.804688 L 17.566406 43.804688 C 16.710938 47.738281 12.828125 50.234375 8.894531 49.378906 C 4.964844 48.523438 2.460938 44.636719 3.320312 40.699219 C 4.175781 36.765625 8.066406 34.269531 11.996094 35.128906 C 14.785156 35.738281 16.964844 37.914062 17.566406 40.699219 L 10.015625 40.699219 C 9.15625 40.699219 8.464844 41.394531 8.464844 42.25 C 8.464844 43.109375 9.15625 43.804688 10.015625 43.804688 Z M 133.738281 40.699219 L 126.183594 40.699219 C 127.035156 36.765625 130.925781 34.269531 134.859375 35.128906 C 138.792969 35.984375 141.292969 39.867188 140.429688 43.804688 C 139.570312 47.738281 135.6875 50.234375 131.757812 49.378906 C 128.964844 48.773438 126.785156 46.597656 126.183594 43.804688 L 133.660156 43.804688 C 134.515625 43.804688 135.210938 43.109375 135.210938 42.25 C 135.210938 41.394531 134.515625 40.699219 133.660156 40.699219 Z M 43.851562 72.015625 L 66.457031 78.867188 L 42.488281 86.132812 Z M 44.167969 68.910156 L 45.71875 52.152344 L 97.992188 52.152344 L 99.542969 68.875 L 71.878906 77.238281 Z M 39.40625 118.277344 L 42.050781 90.644531 L 68.324219 103.785156 Z M 44.957031 88.632812 L 71.878906 80.488281 L 98.714844 88.632812 L 71.878906 102.066406 Z M 104.347656 118.355469 L 75.277344 103.785156 L 101.648438 90.566406 Z M 101.265625 86.222656 L 77.15625 78.867188 L 99.898438 71.980469 Z M 106.972656 35.535156 C 108.132812 35.542969 109.078125 36.46875 109.113281 37.625 L 109.113281 46.828125 C 109.113281 48.011719 108.160156 48.980469 106.972656 48.984375 L 36.78125 48.984375 C 35.601562 48.980469 34.644531 48.027344 34.636719 46.847656 L 34.636719 37.625 C 34.636719 36.4375 35.605469 35.46875 36.792969 35.46875 Z M 47.671875 32.429688 L 48.851562 20.160156 L 94.898438 20.160156 L 96.085938 32.429688 Z M 40.597656 17.058594 C 39.640625 17.046875 38.863281 16.269531 38.859375 15.316406 L 38.859375 7.09375 C 38.863281 6.140625 39.640625 5.367188 40.597656 5.351562 L 103.152344 5.351562 C 104.121094 5.351562 104.898438 6.132812 104.910156 7.09375 L 104.910156 15.265625 C 104.898438 16.230469 104.125 17 103.171875 17.007812 Z M 40.597656 17.058594 " fill="#9da0ad" class="color000 svgShape"></path></svg></g></svg>