<svg data-v-423bf9ae="" xmlns="http://www.w3.org/2000/svg" viewBox="0 0 258.07650270583537 163" class="iconAbove"><!----><!----><!----><g data-v-423bf9ae="" id="22f92051-eab4-4765-8a28-342229c03883" fill="#000000" transform="matrix(4.7501658775716304,0,0,4.7501658775716304,-2.9926012144925664,103.00000190734863)"><path d="M5.36 0.50C2.42 0.50 0.63 2.77 0.63 5.59C0.63 8.16 2.14 10.50 5.03 10.68C6.05 12.78 8.51 12.98 10.33 12.24L10.33 11.72C9.24 11.94 7.41 11.83 6.58 10.56C8.79 10.02 10.11 8.02 10.11 5.61C10.11 2.93 8.46 0.50 5.36 0.50ZM5.53 9.93C3.12 9.93 2.10 7.66 2.10 5.35C2.10 3.21 3.35 1.27 5.21 1.27C7.62 1.27 8.64 3.54 8.64 5.85C8.64 7.99 7.39 9.93 5.53 9.93ZM15.62 10.50L18.23 2.97L20.59 10.50L21.46 10.50L24.53 1.55L25.69 1.19L25.69 0.70L22.55 0.70L22.41 1.33L23.65 1.55L21.31 8.33L18.91 0.70L18.12 0.70L15.50 8.30L13.45 1.53L14.66 1.19L14.66 0.70L11.10 0.70L10.96 1.33L12.08 1.58L14.77 10.50ZM32.79 10.50L32.93 9.86L31.92 9.62L31.92 5.32C31.92 3.64 30.76 3.09 29.30 3.09C28.35 3.09 27.52 3.39 26.80 3.71L26.80 5.53L27.52 5.66L27.92 4.06C28.35 3.91 28.80 3.86 29.23 3.86C30.02 3.86 30.66 4.26 30.66 5.31L30.66 6.45C29.65 6.57 28.85 6.72 27.94 6.96C26.73 7.28 26.32 7.84 26.32 8.78C26.32 9.95 27.19 10.61 28.18 10.61C28.99 10.61 30.10 10.04 30.66 9.37L30.66 10.50ZM27.72 8.67C27.72 8.09 27.99 7.59 28.87 7.35C29.47 7.18 30.06 7.11 30.66 7.04L30.66 8.64C30.32 9.13 29.44 9.73 28.77 9.73C28.21 9.73 27.72 9.55 27.72 8.67ZM36.12 0L33.66 0.34L33.73 0.91L34.86 1.12L34.86 9.66L33.63 10.08L33.63 10.50L37.17 10.50L37.31 9.83L36.12 9.63ZM40.57 0L38.11 0.34L38.18 0.91L39.31 1.12L39.31 9.66L38.08 10.08L38.08 10.50L41.62 10.50L41.76 9.83L40.57 9.63ZM49.04 6.75C49.04 5.00 48.54 3.11 46.05 3.11C44.44 3.11 42.67 4.35 42.67 6.83C42.67 9.25 44.24 10.63 46.09 10.63C47.03 10.63 48.02 10.28 48.93 9.56L48.62 9.03C47.91 9.49 47.22 9.72 46.56 9.72C45.15 9.72 44.07 8.60 44.07 6.75ZM44.11 5.99C44.16 4.62 45.12 3.86 46.00 3.86C46.84 3.86 47.64 4.52 47.64 5.99ZM54.70 9.20C54.12 9.55 53.70 9.69 53.27 9.69C52.56 9.69 52.46 9.38 52.46 8.36L52.46 4.24L54.70 4.24L54.70 3.47L52.46 3.47L52.46 1.79L51.76 1.79L51.27 3.33L50.09 3.75L50.09 4.24L51.20 4.24L51.20 8.69C51.20 9.83 51.55 10.67 52.78 10.67C53.62 10.67 54.53 10.21 54.96 9.53Z"></path></g><defs data-v-423bf9ae=""><linearGradient data-v-423bf9ae="" gradientTransform="rotate(25)" id="899fc5d3-c746-48be-8e97-d86f645389f2" x1="0%" y1="0%" x2="100%" y2="0%"><stop data-v-423bf9ae="" offset="0%" style="stop-color: rgb(233, 13, 202); stop-opacity: 1;"></stop><stop data-v-423bf9ae="" offset="100%" style="stop-color: rgb(21, 54, 241); stop-opacity: 1;"></stop></linearGradient></defs><g data-v-423bf9ae="" id="0bf16f1c-fd31-435d-9453-2488b2f1e3aa" transform="matrix(1.003702555372415,0,0,1.003702555372415,79.41057322342107,-4.016928083261554)" stroke="none" fill="url(#899fc5d3-c746-48be-8e97-d86f645389f2)"><path d="M88.077 34.411h-4.475l-4.824 3.383h7.867c.373 0 .742.047 1.093.132 2.162.504 3.77 2.461 3.77 4.793v43.093a6.968 6.968 0 0 0 3.437-6.02v-38.42c-.001-3.847-3.077-6.961-6.868-6.961z"></path><path d="M86.837 40.688H10.199a1.449 1.449 0 1 1 0-2.898h5.903l1.957-1.414 2.72-1.965h-9.714c-3.829 0-6.932 3.114-6.932 6.952v45.921c0 3.843 3.103 6.956 6.932 6.956h70.861c3.827 0 6.933-3.113 6.933-6.956v-44.57a2.03 2.03 0 0 0-2.022-2.026z"></path><path d="M49.752 26.299c-5.534-.29-10.249 3.943-10.524 9.453a9.991 9.991 0 0 0 .137 2.177h19.797c.062-.368.106-.741.126-1.122.273-5.515-3.998-10.219-9.536-10.508z"></path><path d="M39.228 35.752c.275-5.509 4.991-9.742 10.524-9.453 5.538.289 9.808 4.992 9.536 10.507-.02.381-.064.754-.126 1.122h15.577l9.822-7.292L64.814 4.572 19.895 37.929h19.47a9.991 9.991 0 0 1-.137-2.177zM40.884 5.019l-18.675 28.38L51.353 11.92z"></path></g><!----></svg>