<svg height="512pt" viewBox="-53 0 512 512" width="512pt" xmlns="http://www.w3.org/2000/svg"><path d="m385.890625 353c11.042969 0 20-8.953125 20-20v-203c0-44.113281-35.890625-80-80-80h-63v-30c0-11.046875-8.957031-20-20-20h-80c-11.046875 0-20 8.953125-20 20v30h-62.890625c-44.113281 0-80 35.886719-80 80v302c0 44.113281 35.886719 80 80 80h245.890625c44.109375 0 80-35.886719 80-80 0-11.046875-8.957031-20-20-20-11.046875 0-20 8.953125-20 20 0 22.054688-17.945313 40-40 40h-245.890625c-22.054688 0-40-17.945312-40-40v-302c0-22.054688 17.945312-40 40-40h62.890625v10c0 33.085938 26.914063 60 60 60 33.082031 0 60-26.914062 60-60v-10h63c22.054687 0 40 17.945312 40 40v203c0 11.046875 8.953125 20 20 20zm-163-253c0 11.027344-8.972656 20-20 20-11.03125 0-20-8.972656-20-20v-60h40zm87.402344 127.625c9.074219 6.296875 11.324219 18.761719 5.027343 27.835938l-88.984374 128.203124c-.265626.382813-.546876.757813-.839844 1.125-8.984375 11.183594-22.347656 18.144532-36.660156 19.097657-1.132813.074219-2.269532.113281-3.398438.113281-13.136719 0-25.910156-5.066406-35.476562-14.175781-.09375-.089844-.1875-.175781-.277344-.265625l-52.859375-52.28125c-7.851563-7.769532-7.921875-20.433594-.15625-28.285156 7.769531-7.855469 20.433593-7.921876 28.285156-.15625l52.691406 52.113281c3.132813 2.914062 6.675781 3.148437 8.527344 3.023437 1.792969-.117187 5.121094-.78125 7.800781-3.832031l88.484375-127.488281c6.300781-9.074219 18.761719-11.328125 27.835938-5.027344zm0 0"/></svg>