<?xml version="1.0"?>
<svg xmlns="http://www.w3.org/2000/svg" xmlns:xlink="http://www.w3.org/1999/xlink" xmlns:svgjs="http://svgjs.com/svgjs" version="1.1" width="512" height="512" x="0" y="0" viewBox="0 0 512 512" style="enable-background:new 0 0 512 512" xml:space="preserve" class=""><rect width="512" height="512" rx="20" ry="20" fill="#45688d" shape="rounded"/><g transform="matrix(0.5,0,0,0.5,128.00001525878906,127.99999237060547)"><g xmlns="http://www.w3.org/2000/svg"><path d="m383.51 390.51c10.91-.01 19.79-8.88 19.79-19.8 0-10.91-8.88-19.79-19.8-19.79-10.91 0-19.79 8.88-19.79 19.79 0 10.925 8.869 19.78 19.79 19.8z" fill="#d4e9ff" data-original="#000000" style="" class=""/><path d="m383.51 420.51h-.01s0 0-.01 0c-26.1 0-47.33 21.24-47.33 47.35v35.14c15.047 5.948 31.073 9 47.34 9 16.247 0 32.285-3.045 47.35-9v-35.14c0-26.11-21.24-47.35-47.34-47.35z" fill="#d4e9ff" data-original="#000000" style="" class=""/><path d="m383.5 255c-30.074 0-57.766 10.391-79.684 27.766l-75.063-73.79c.214-.267.435-.527.647-.796 14.467-18.334 23.925-40.611 26.725-64.681h99.986c7.023 36.228 38.968 63.671 77.219 63.671 43.38 0 78.67-35.29 78.67-78.67s-35.29-78.67-78.67-78.67c-38.25 0-70.194 27.442-77.218 63.669h-99.992c-7.455-63.816-61.844-113.499-127.62-113.499-70.86 0-128.5 57.64-128.5 128.5 0 41.41 19.67 79 51.15 102.7v-18.34c0-28.32 15.31-53.12 38.07-66.6-6.58-8.44-10.52-19.04-10.52-30.55 0-27.46 22.34-49.79 49.8-49.79s49.79 22.33 49.79 49.79c0 11.51-3.93 22.11-10.51 30.55 17.71 10.49 30.91 27.84 35.89 48.37 2.664 10.975 2.17 17.317 2.17 36.58l76.633 72.969c-14.283 18.151-23.779 40.232-26.593 64.322h-99.992c-7.023-36.228-38.968-63.671-77.219-63.671-43.379 0-78.669 35.29-78.669 78.67s35.29 78.67 78.67 78.67c38.249 0 70.193-27.442 77.218-63.669h99.984c4.12 35.396 22.648 66.907 50.288 87.709v-18.35c0-28.32 15.3-53.12 38.06-66.6-6.58-8.44-10.51-19.04-10.51-30.55 0-27.45 22.33-49.79 49.79-49.79s49.8 22.34 49.8 49.79c0 11.51-3.94 22.11-10.52 30.55 22.76 13.48 38.07 38.28 38.07 66.6v18.34c31.48-23.7 51.15-61.29 51.15-102.7 0-70.85-57.64-128.5-128.5-128.5z" fill="#d4e9ff" data-original="#000000" style="" class=""/><path d="m148.29 115.71c0-10.92-8.88-19.79-19.79-19.79-10.92 0-19.8 8.87-19.8 19.79 0 10.91 8.88 19.79 19.8 19.79 10.91 0 19.79-8.88 19.79-19.79z" fill="#d4e9ff" data-original="#000000" style="" class=""/><path d="m81.15 212.86v35.14c15.048 5.948 31.085 9 47.35 9 16.354 0 32.388-3.089 47.34-9v-35.14c0-26.11-21.23-47.36-47.34-47.36s-47.35 21.25-47.35 47.36z" fill="#d4e9ff" data-original="#000000" style="" class=""/></g></g></svg>
